<svg width="18" height="19" viewBox="0 0 18 19" fill="none" xmlns="http://www.w3.org/2000/svg">
<path d="M13.7335 9.3429C12.5624 9.33974 11.4379 9.82882 10.6364 10.6965C9.48084 9.7594 8.04567 9.25455 6.57011 9.26086H6.55769C4.78392 9.26402 3.1344 9.9645 1.91357 11.2392C0.674106 12.5266 -0.00309579 14.2873 1.06399e-05 16.1962C1.06399e-05 16.3004 0.0403943 16.4013 0.111842 16.4771C0.18329 16.5528 0.282696 16.5938 0.388315 16.5907L10.565 16.5717C10.5867 16.6001 10.6116 16.6222 10.6333 16.6506C11.9691 18.0863 14.0939 18.4239 15.7962 17.4678C17.4985 16.5118 18.3497 14.5081 17.8651 12.596C17.3774 10.6808 15.6782 9.3429 13.7335 9.3429ZM0.785938 15.7987C0.866705 14.2526 1.45693 12.839 2.46962 11.7883C3.54445 10.665 4.99826 10.0465 6.55769 10.0465H6.57011C7.87481 10.0402 9.13913 10.4883 10.158 11.315C9.30067 12.6623 9.24164 14.3819 10.012 15.7829L0.785938 15.7987ZM13.7335 17.2186C11.8076 17.2186 10.245 15.6314 10.245 13.6751C10.245 11.7188 11.8076 10.1317 13.7335 10.1317C15.6595 10.1317 17.2221 11.7188 17.2221 13.6751C17.2221 15.6314 15.6595 17.2186 13.7335 17.2186Z" fill="#4890AF"/>
<path d="M6.56091 8.3237C8.8224 8.3237 10.6583 6.45892 10.6583 4.16185C10.6583 1.86479 8.8224 0 6.56091 0C4.29943 0 2.46353 1.86479 2.46353 4.16185C2.46664 6.45892 4.29943 8.32055 6.56091 8.3237ZM6.56091 0.785672C8.39682 0.785672 9.88169 2.29706 9.88169 4.1587C9.88169 6.02348 8.39371 7.53172 6.56091 7.53172C4.72501 7.53172 3.24014 6.02033 3.24014 4.1587C3.24325 2.29706 4.72812 0.788827 6.56091 0.785672Z" fill="#4890AF"/>
<path d="M15.3023 13.2807H12.1617C11.9474 13.2807 11.7734 13.4574 11.7734 13.6751C11.7734 13.8928 11.9474 14.0695 12.1617 14.0695H15.3023C15.5167 14.0695 15.6906 13.8928 15.6906 13.6751C15.6906 13.4574 15.5167 13.2807 15.3023 13.2807Z" fill="#4890AF"/>
<path d="M14.0811 15.2952L14.1045 12.1547C14.1061 11.9404 13.9307 11.7651 13.713 11.7635C13.4953 11.7619 13.3173 11.9345 13.3157 12.1488L13.2923 15.2893C13.2907 15.5037 13.4661 15.679 13.6838 15.6806C13.9015 15.6822 14.0795 15.5096 14.0811 15.2952Z" fill="#4890AF"/>
</svg>
