<svg width="13" height="15" viewBox="0 0 13 15" fill="none" xmlns="http://www.w3.org/2000/svg">
<path d="M10.4163 1.79712H8.08143C7.96496 0.787142 7.10565 0 6.06492 0C5.02421 0 4.16503 0.787111 4.04855 1.79712H1.71355C0.768643 1.79712 0 2.56598 0 3.51086V3.59879C0 4.32085 0.449601 4.93888 1.08296 5.1907V13.2863C1.08296 14.2312 1.8517 15 2.79654 15H9.33335C10.2782 15 11.0469 14.2311 11.0469 13.2863V5.19073C11.6802 4.93888 12.1299 4.32085 12.1299 3.59882V3.51089C12.1299 2.56598 11.3612 1.79712 10.4163 1.79712ZM6.06492 0.812731C6.65683 0.812731 7.15089 1.23699 7.26021 1.79712H4.86984C4.97913 1.23696 5.47322 0.812731 6.06492 0.812731ZM10.2342 13.2863C10.2342 13.7831 9.82996 14.1873 9.33332 14.1873H2.79651C2.29987 14.1873 1.89566 13.783 1.89566 13.2863V5.31252H10.2342V13.2863ZM11.3171 3.59879C11.3171 4.09559 10.9129 4.49982 10.4163 4.49982H1.71355C1.21691 4.49982 0.812702 4.09559 0.812702 3.59879V3.51086C0.812702 3.01406 1.21691 2.60982 1.71355 2.60982H10.4163C10.913 2.60982 11.3172 3.01406 11.3172 3.51086V3.59879H11.3171Z" fill="#4890AF"/>
<path d="M3.88625 13.1479C4.11068 13.1479 4.29261 12.966 4.29261 12.7416V8.16621C4.29261 7.94184 4.11065 7.75983 3.88625 7.75983C3.66186 7.75983 3.4799 7.94184 3.4799 8.16621V12.7416C3.47987 12.966 3.66183 13.1479 3.88625 13.1479Z" fill="#4890AF"/>
<path d="M6.06492 13.1479C6.28935 13.1479 6.4713 12.966 6.4713 12.7416V8.16621C6.4713 7.94184 6.28929 7.75983 6.06492 7.75983C5.84052 7.75983 5.65857 7.94184 5.65857 8.16621V12.7416C5.65857 12.966 5.84049 13.1479 6.06492 13.1479Z" fill="#4890AF"/>
<path d="M8.24359 13.1479C8.46798 13.1479 8.64991 12.966 8.64991 12.7416V8.16621C8.64991 7.94184 8.46795 7.75983 8.24359 7.75983C8.01913 7.75983 7.8372 7.94184 7.8372 8.16621V12.7416C7.83717 12.966 8.01919 13.1479 8.24359 13.1479Z" fill="#4890AF"/>
</svg>
