<svg width="24" height="22" viewBox="0 0 24 22" fill="none" xmlns="http://www.w3.org/2000/svg">
<path d="M12.0002 4.78259C11.7423 4.78259 11.5314 4.99781 11.5314 5.26085C11.5314 5.5239 11.7423 5.73912 12.0002 5.73912C12.258 5.73912 12.4689 5.5239 12.4689 5.26085C12.4689 4.99781 12.258 4.78259 12.0002 4.78259Z" fill="#A6A6A6"/>
<path d="M4.21875 13.3913C4.47656 13.3913 4.6875 13.1761 4.6875 12.9131C4.6875 12.65 4.47656 12.4348 4.21875 12.4348C3.96094 12.4348 3.75 12.65 3.75 12.9131C3.75 13.1761 3.96094 13.3913 4.21875 13.3913Z" fill="#A6A6A6"/>
<path d="M15.75 0C11.5312 0 8.06836 2.9712 7.79883 6.70761C3.7793 6.91087 0 9.87011 0 13.8696C0 15.5435 0.650391 17.1576 1.82812 18.4429C2.0625 19.4234 1.77539 20.4636 1.07227 21.181C0.9375 21.3185 0.896484 21.5217 0.972656 21.7011C1.04297 21.8804 1.21875 21.994 1.40625 21.994C2.74219 21.994 4.03125 21.462 4.98633 20.5174C5.91797 20.8402 7.13672 21.0375 8.25 21.0375C12.4688 21.0375 15.9316 18.0723 16.2012 14.3299C17.1855 14.288 18.2051 14.1027 19.0137 13.8217C19.9688 14.7663 21.2578 15.2984 22.5938 15.2984C22.7812 15.2984 22.957 15.1848 23.0273 15.0054C23.0977 14.8261 23.0625 14.6228 22.9277 14.4853C22.2246 13.7679 21.9434 12.7277 22.1719 11.7473C23.3496 10.462 24 8.84783 24 7.17391C24 3.01902 19.9277 0 15.75 0ZM8.25 20.087C7.14258 20.087 5.88281 19.8658 5.03906 19.525C4.85742 19.4533 4.65234 19.5011 4.51758 19.6446C3.94922 20.2783 3.2168 20.7147 2.41406 20.9179C2.85352 20.0571 2.9707 19.0348 2.70117 18.0723C2.67773 17.9946 2.64258 17.9288 2.58398 17.869C1.52344 16.7511 0.9375 15.3283 0.9375 13.8696C0.9375 10.4978 4.2832 7.65217 8.25 7.65217C11.9941 7.65217 15.2812 10.3065 15.2812 13.8696C15.2812 17.2951 12.1289 20.087 8.25 20.087ZM21.416 11.1734C21.3633 11.2272 21.3223 11.2989 21.2988 11.3766C21.0293 12.3391 21.1406 13.3614 21.5859 14.2223C20.7832 14.019 20.0508 13.5826 19.4824 12.9489C19.3535 12.8054 19.1426 12.7516 18.9609 12.8293C18.2285 13.1283 17.1855 13.3315 16.2012 13.3793C16.0664 11.5679 15.1816 9.87011 13.6699 8.6087H19.7871C20.0449 8.6087 20.2559 8.39348 20.2559 8.13043C20.2559 7.86739 20.0449 7.65217 19.7871 7.65217H12.2285C11.1621 7.10217 9.9668 6.77935 8.74219 6.70761C9.00586 3.49728 12.0469 0.956522 15.75 0.956522C19.7109 0.956522 23.0625 3.80217 23.0625 7.17391C23.0625 8.63261 22.4766 10.0554 21.416 11.1734Z" fill="#A6A6A6"/>
<path d="M12 12.4348H6.09375C5.83594 12.4348 5.625 12.65 5.625 12.9131C5.625 13.1761 5.83594 13.3913 6.09375 13.3913H12C12.2578 13.3913 12.4688 13.1761 12.4688 12.9131C12.4688 12.65 12.2578 12.4348 12 12.4348Z" fill="#A6A6A6"/>
<path d="M12 15.3043H4.21875C3.96094 15.3043 3.75 15.5195 3.75 15.7826C3.75 16.0456 3.96094 16.2608 4.21875 16.2608H12C12.2578 16.2608 12.4688 16.0456 12.4688 15.7826C12.4688 15.5195 12.2578 15.3043 12 15.3043Z" fill="#A6A6A6"/>
<path d="M19.7814 4.78259H13.8752C13.6173 4.78259 13.4064 4.99781 13.4064 5.26085C13.4064 5.5239 13.6173 5.73912 13.8752 5.73912H19.7814C20.0392 5.73912 20.2502 5.5239 20.2502 5.26085C20.2502 4.99781 20.0392 4.78259 19.7814 4.78259Z" fill="#A6A6A6"/>
</svg>
