<svg width="18" height="18" viewBox="0 0 18 18" fill="none" xmlns="http://www.w3.org/2000/svg">
<path d="M16.6133 11.2392C16.3657 11.2392 16.165 11.4399 16.165 11.6875V15.6679C16.1641 16.4104 15.5626 17.012 14.8201 17.0127H2.24146C1.49898 17.012 0.897461 16.4104 0.896585 15.6679V3.98582C0.897461 3.24351 1.49898 2.64181 2.24146 2.64094H6.22181C6.46942 2.64094 6.6701 2.44026 6.6701 2.19265C6.6701 1.94521 6.46942 1.74435 6.22181 1.74435H2.24146C1.00411 1.74576 0.00140091 2.74846 0 3.98582V15.668C0.00140091 16.9054 1.00411 17.9081 2.24146 17.9095H14.8201C16.0575 17.9081 17.0602 16.9054 17.0616 15.668V11.6875C17.0616 11.4399 16.8609 11.2392 16.6133 11.2392Z" fill="#4890AF"/>
<path d="M16.884 0.590879C16.0962 -0.19696 14.8189 -0.19696 14.0311 0.590879L6.03324 8.5887C5.97843 8.64351 5.93886 8.71145 5.91819 8.78605L4.86646 12.5831C4.8232 12.7387 4.86716 12.9054 4.98133 13.0198C5.09568 13.134 5.26239 13.1779 5.41807 13.1348L9.21507 12.0829C9.28967 12.0623 9.35761 12.0227 9.41242 11.9679L17.4101 3.96988C18.1967 3.18152 18.1967 1.90529 17.4101 1.11692L16.884 0.590879ZM7.01003 8.88009L13.5556 2.33432L15.6666 4.44532L9.12086 10.9911L7.01003 8.88009ZM6.58836 9.72624L8.27488 11.4129L5.94201 12.0593L6.58836 9.72624ZM16.7762 3.33597L16.3007 3.81141L14.1895 1.70023L14.6652 1.22479C15.1028 0.787183 15.8123 0.787183 16.2499 1.22479L16.7762 1.75084C17.2131 2.18897 17.2131 2.89801 16.7762 3.33597Z" fill="#4890AF"/>
</svg>
