<svg width="24" height="24" viewBox="0 0 24 24" fill="none" xmlns="http://www.w3.org/2000/svg">
<g clip-path="url(#clip0)">
<path d="M14.0865 24H2.61061C1.17061 24 0 22.8294 0 21.3894V2.61061C0 1.17061 1.17061 0 2.61061 0H14.0865C15.5265 0 16.6971 1.17061 16.6971 2.61061V8.8702C16.6971 9.15918 16.462 9.39429 16.178 9.39429C15.889 9.39429 15.6539 9.15918 15.6539 8.8702V2.61061C15.6539 1.74857 14.9535 1.04327 14.0865 1.04327H2.61061C1.74857 1.04327 1.04327 1.74367 1.04327 2.61061V21.3943C1.04327 22.2563 1.74367 22.9616 2.61061 22.9616H14.0865C14.9486 22.9616 15.6539 22.2612 15.6539 21.3943V15.1298C15.6539 14.8408 15.889 14.6106 16.178 14.6106C16.4669 14.6106 16.6971 14.8457 16.6971 15.1298V21.3894C16.6971 22.8294 15.5265 24 14.0865 24Z" fill="#A6A6A6"/>
<path d="M23.4759 12.5191H6.78363C6.49465 12.5191 6.25955 12.284 6.25955 11.995C6.25955 11.706 6.49465 11.4758 6.78363 11.4758H23.4808C23.7698 11.4758 24.0049 11.7109 24.0049 11.995C24 12.2889 23.7649 12.5191 23.4759 12.5191Z" fill="#A6A6A6"/>
<path d="M20.3462 15.6538C20.2139 15.6538 20.0768 15.6049 19.9788 15.502C19.7731 15.2963 19.7731 14.9681 19.9788 14.7624L22.7413 12L19.9788 9.23751C19.7731 9.03179 19.7731 8.70363 19.9788 8.49791C20.1846 8.2922 20.5127 8.2922 20.7184 8.49791L23.8482 11.6277C24.0539 11.8334 24.0539 12.1616 23.8482 12.3673L20.7184 15.502C20.6156 15.6 20.4833 15.6538 20.3462 15.6538Z" fill="#A6A6A6"/>
</g>
<defs>
<clipPath id="clip0">
<rect width="24" height="24" fill="white"/>
</clipPath>
</defs>
</svg>
