<svg width="23" height="15" viewBox="0 0 23 15" fill="none" xmlns="http://www.w3.org/2000/svg">
<path d="M22.4941 0.435617C22.4956 0.426614 22.4983 0.417612 22.499 0.408609C22.5016 0.380852 22.4986 0.352719 22.4953 0.324587C22.4945 0.31746 22.4956 0.310708 22.4945 0.303581C22.4878 0.266447 22.4754 0.230062 22.457 0.195178C22.454 0.189176 22.4499 0.18355 22.4466 0.177548C22.4458 0.176798 22.4458 0.175672 22.4454 0.174547C22.4451 0.173797 22.4439 0.173422 22.4436 0.172297C22.4409 0.168171 22.4387 0.163669 22.4361 0.159918C22.4128 0.125784 22.3847 0.0976516 22.3533 0.0736452C22.3462 0.0683938 22.3379 0.065393 22.3304 0.0605167C22.3027 0.0421368 22.2735 0.0271328 22.242 0.0170051C22.2282 0.0125039 22.2143 0.0102534 22.2001 0.00762772C22.1727 0.00200122 22.1454 -0.000624653 22.1169 0.000125547C22.1019 0.000500647 22.0877 0.00125078 22.0727 0.00350138C22.063 0.00500178 22.0536 0.00350158 22.0438 0.00575218L0.2989 4.50545C0.144184 4.53771 0.0258054 4.66337 0.00370306 4.82016C-0.0183993 4.97695 0.0598954 5.13074 0.199627 5.20464L6.43024 8.49539L7.52299 14.5671C7.52224 14.5716 7.52336 14.5765 7.52299 14.581C7.51924 14.611 7.51887 14.6403 7.52261 14.6699C7.52449 14.6849 7.52636 14.6992 7.53011 14.7138C7.53872 14.7494 7.55258 14.7828 7.57132 14.8143C7.57506 14.8203 7.57506 14.8275 7.57918 14.8335C7.58031 14.8353 7.58218 14.8368 7.58368 14.8383C7.58855 14.8455 7.59529 14.8511 7.60091 14.8582C7.61852 14.88 7.63687 14.8998 7.65785 14.9167C7.66122 14.9194 7.66347 14.9235 7.66722 14.9261C7.67284 14.9302 7.6792 14.9314 7.68482 14.9351C7.70767 14.9501 7.73128 14.9625 7.75638 14.9722C7.76649 14.976 7.77586 14.9805 7.78634 14.9835C7.82006 14.9932 7.8549 15 7.89011 15C7.89049 15 7.89086 15 7.89124 15C7.89274 15 7.89423 14.9993 7.89573 14.9993C7.9021 14.9996 7.90847 15 7.91484 15C8.01861 15 8.11226 14.9535 8.18156 14.8818L12.3319 12.1114L16.6775 14.9396C16.7389 14.9794 16.8101 15 16.8816 15C16.921 15 16.9611 14.9936 16.9996 14.9809C17.1075 14.9449 17.1937 14.8616 17.233 14.7543L22.4762 0.504635C22.481 0.491882 22.4851 0.478753 22.4885 0.46525C22.49 0.459623 22.4904 0.453997 22.4915 0.448745C22.4926 0.444619 22.4934 0.440118 22.4941 0.435617ZM18.1553 2.82988L9.16718 9.44702C9.15257 9.4579 9.14095 9.4714 9.12822 9.48415C9.12335 9.48866 9.11848 9.49241 9.11436 9.49728C9.10649 9.50591 9.09937 9.51454 9.09225 9.52391C9.08551 9.53292 9.08027 9.54229 9.07427 9.55167C9.06041 9.57418 9.0488 9.59743 9.03981 9.62219C9.03794 9.62707 9.03494 9.63082 9.03344 9.63569C9.03307 9.63719 9.03157 9.63795 9.03119 9.63945L8.001 12.9917L7.18471 8.45638L18.1553 2.82988ZM8.58165 13.7134L9.60286 10.336L11.1927 11.3709L11.6475 11.6669L10.1026 12.698L8.58165 13.7134ZM19.4965 1.2991L6.76964 7.82621L1.47257 5.02872L19.4965 1.2991ZM16.6925 14.0547L10.9215 10.2992L10.0475 9.73022L21.3437 1.4135L16.6925 14.0547Z" fill="#4890AF"/>
</svg>
