<svg width="24" height="17" viewBox="0 0 24 17" fill="none" xmlns="http://www.w3.org/2000/svg">
<g clip-path="url(#clip0)">
<path d="M7.4776 7.61649C9.67316 7.61649 11.4551 5.91039 11.4551 3.80824C11.4551 1.70609 9.67316 0 7.4776 0C5.28204 0 3.50014 1.70609 3.50014 3.80824C3.50014 5.91039 5.28204 7.61649 7.4776 7.61649ZM7.4776 0.913978C9.14813 0.913978 10.5005 2.20878 10.5005 3.80824C10.5005 5.40771 9.14813 6.70251 7.4776 6.70251C5.80706 6.70251 4.45473 5.40771 4.45473 3.80824C4.45473 2.20878 5.80706 0.913978 7.4776 0.913978Z" fill="#A6A6A6"/>
<path d="M17.9781 7.61649C20.1737 7.61649 21.9556 5.91039 21.9556 3.80824C21.9556 1.70609 20.1737 0 17.9781 0C15.7826 0 14.0007 1.70609 14.0007 3.80824C14.0007 5.91039 15.7826 7.61649 17.9781 7.61649ZM17.9781 0.913978C19.6487 0.913978 21.001 2.20878 21.001 3.80824C21.001 5.40771 19.6487 6.70251 17.9781 6.70251C16.3076 6.70251 14.9553 5.40771 14.9553 3.80824C14.9553 2.20878 16.3076 0.913978 17.9781 0.913978Z" fill="#A6A6A6"/>
<path d="M23.1408 12.7271C23.2362 12.8414 23.3794 12.9023 23.5226 12.9023C23.626 12.9023 23.7294 12.8718 23.817 12.8033C24.0238 12.6509 24.0636 12.3615 23.9045 12.1635C22.4726 10.3965 20.3168 9.37585 17.986 9.37585C16.4905 9.37585 15.0427 9.80238 13.8017 10.6021C13.5869 10.7468 13.5233 11.0286 13.6744 11.2343C13.8256 11.4475 14.1199 11.5009 14.3347 11.3561C15.4166 10.6554 16.6734 10.2898 17.978 10.2898C20.0145 10.2975 21.8998 11.181 23.1408 12.7271Z" fill="#A6A6A6"/>
<path d="M7.47762 9.38354C3.35698 9.38354 0 12.5977 0 16.543C0 16.7944 0.214783 17 0.477295 17C0.739807 17 0.95459 16.7944 0.95459 16.543C0.95459 13.1004 3.882 10.2975 7.47762 10.2975C11.0732 10.2975 14.0007 13.1004 14.0007 16.543C14.0007 16.7944 14.2154 17 14.478 17C14.7405 17 14.9552 16.7944 14.9552 16.543C14.9552 12.5977 11.5983 9.38354 7.47762 9.38354Z" fill="#A6A6A6"/>
</g>
<defs>
<clipPath id="clip0">
<rect width="24" height="17" fill="white"/>
</clipPath>
</defs>
</svg>
