<svg width="24" height="24" viewBox="0 0 24 24" fill="none" xmlns="http://www.w3.org/2000/svg">
<path d="M23.6667 10.4444L22.2222 10.1667C21.3889 10 20.7222 9.44444 20.4444 8.66667C20.1667 7.88889 20.2778 7.05555 20.7222 6.33333L21.6111 5.16667C21.7222 5 21.7222 4.72222 21.5556 4.61111L19.6667 2.72222C19.5 2.55556 19.2778 2.55556 19.1111 2.66667L17.9444 3.44444C17.2778 3.88889 16.3889 4 15.6111 3.66667C14.8333 3.33333 14.3333 2.66667 14.1667 1.83333L13.9444 0.388889C13.9444 0.166667 13.7778 0 13.5556 0H10.8889C10.6667 0 10.5 0.166667 10.4444 0.333333L10.1111 2.11111C9.94444 2.88889 9.44444 3.55556 8.66667 3.88889C7.88889 4.22222 7.05556 4.11111 6.38889 3.66667L4.88889 2.66667C4.66667 2.55556 4.44444 2.55556 4.27778 2.72222L2.38889 4.61111C2.27778 4.77778 2.22222 5 2.38889 5.16667L3.27778 6.33333C3.77778 7 3.88889 7.88889 3.55556 8.66667C3.27778 9.44444 2.55556 10 1.77778 10.1667L0.388889 10.4444C0.166667 10.5 0 10.6667 0 10.8889V13.5556C0 13.7778 0.166667 13.9444 0.388889 14L1.83333 14.2222C2.66667 14.3333 3.33333 14.8889 3.66667 15.6667C4 16.4444 3.94444 17.2778 3.44444 18L2.66667 19.1667C2.55556 19.3333 2.55556 19.5556 2.72222 19.7222L4.61111 21.6111C4.77778 21.7778 5 21.7778 5.16667 21.6667L6.33333 20.7778C7 20.2778 7.88889 20.1667 8.66667 20.5C9.44444 20.7778 10 21.5 10.1667 22.2778L10.4444 23.6667C10.5 23.8889 10.6667 24 10.8889 24H13.5556C13.7778 24 13.9444 23.8333 14 23.6111L14.1667 22.6111C14.2778 21.7778 14.8333 21.0556 15.6111 20.7222C16.3889 20.3889 17.2778 20.5 17.9444 21L18.7778 21.6111C18.9444 21.7222 19.2222 21.7222 19.3333 21.5556L21.2222 19.6667C21.3889 19.5 21.3889 19.2778 21.2778 19.1111L20.5556 17.9444C20.1111 17.2778 20 16.3889 20.3333 15.6111C20.6667 14.8333 21.3333 14.3333 22.1667 14.1667L23.6111 13.9444C23.8333 13.8889 24 13.7222 24 13.5V10.8333C24 10.6667 23.8333 10.5 23.6667 10.4444ZM23.1111 13.1667L22 13.3333C20.8889 13.5 19.9444 14.2222 19.5 15.2778C19.0556 16.3333 19.1667 17.5 19.7778 18.4444L20.3889 19.3333L19.0556 20.6667L18.5 20.2778C17.5556 19.6111 16.3333 19.4444 15.2778 19.8889C14.2222 20.3333 13.4444 21.2778 13.2778 22.4444L13.1667 23.1111H11.2222L11 22.0556C10.7778 20.9444 10 20 8.94444 19.6111C7.88889 19.1667 6.72222 19.3333 5.77778 20L5 20.6667L3.66667 19.3333L4.27778 18.4444C4.88889 17.5 5 16.3333 4.55556 15.2778C4.11111 14.2222 3.16667 13.5 2 13.3333L0.944444 13.1667V11.2222L2 11C3.11111 10.7778 4.05556 10 4.44444 8.94444C4.88889 7.88889 4.72222 6.72222 4.05556 5.77778L3.33333 5L4.66667 3.66667L5.88889 4.44444C6.83333 5.05556 8 5.16667 9 4.77778C10.0556 4.33333 10.7778 3.44444 11 2.33333L11.2778 0.888889H13.2222L13.3333 1.94444C13.5 3.05556 14.2222 4 15.2778 4.5C16.3333 4.94444 17.5 4.83333 18.4444 4.22222L19.3333 3.61111L20.6667 5L20 5.88889C19.3333 6.83333 19.1667 8 19.6111 9.05555C20.0556 10.1111 20.9444 10.8889 22.0556 11.1111L23.1111 11.3333V13.1667Z" fill="#4890AF"/>
<path d="M12.2222 7.55554C9.66662 7.55554 7.55551 9.66665 7.55551 12.2222C7.55551 14.7778 9.66662 16.8889 12.2222 16.8889C14.7777 16.8889 16.8888 14.7778 16.8888 12.2222C16.8888 9.66665 14.7777 7.55554 12.2222 7.55554ZM12.2222 16C10.1111 16 8.4444 14.2778 8.4444 12.2222C8.4444 10.1667 10.1666 8.44443 12.2222 8.44443C14.2777 8.44443 16 10.1667 16 12.2222C16 14.2778 14.2777 16 12.2222 16Z" fill="#4890AF"/>
<path d="M12.2222 9.77783C10.8889 9.77783 9.77774 10.8889 9.77774 12.2223C9.77774 13.5556 10.8889 14.6667 12.2222 14.6667C13.5555 14.6667 14.6666 13.5556 14.6666 12.2223C14.6666 10.8889 13.5555 9.77783 12.2222 9.77783ZM12.2222 13.7778C11.3889 13.7778 10.6666 13.0556 10.6666 12.2223C10.6666 11.3889 11.3889 10.6667 12.2222 10.6667C13.0555 10.6667 13.7777 11.3889 13.7777 12.2223C13.7777 13.0556 13.0555 13.7778 12.2222 13.7778Z" fill="#4890AF"/>
</svg>
