<svg width="14" height="14" viewBox="0 0 14 14" fill="none" xmlns="http://www.w3.org/2000/svg">
<path d="M5.69914 8.80017H6.19914C6.19914 8.52403 5.97528 8.30017 5.69914 8.30017V8.80017ZM7.44105 13.0001V13.5001C7.64083 13.5001 7.82143 13.3812 7.90037 13.1976L7.44105 13.0001ZM9.76361 7.60019L10.2229 7.79775C10.2498 7.73534 10.2636 7.66812 10.2636 7.60019H9.76361ZM9.76361 1.00031H10.2636C10.2636 0.724172 10.0398 0.500315 9.76361 0.500315V1.00031ZM3.214 1.00031L3.20816 1.50031H3.214V1.00031ZM2.05272 2.0203L2.54731 2.09369L2.54742 2.0929L2.05272 2.0203ZM1.25144 7.4202L0.756855 7.34681L0.756748 7.34753L1.25144 7.4202ZM2.41272 8.80017V8.30014L2.40687 8.3002L2.41272 8.80017ZM9.76367 1.00022V0.50022C9.48753 0.50022 9.26367 0.724078 9.26367 1.00022H9.76367ZM11.314 1.00022V1.5003L11.3231 1.50014L11.314 1.00022ZM12.6669 2.2002H13.1669C13.1669 2.1785 13.1655 2.15682 13.1627 2.1353L12.6669 2.2002ZM12.6669 6.40012L13.1627 6.46502C13.1655 6.4435 13.1669 6.42182 13.1669 6.40012H12.6669ZM11.314 7.6001L11.3231 7.1001H11.314V7.6001ZM9.76367 7.6001H9.26367C9.26367 7.87624 9.48753 8.1001 9.76367 8.1001V7.6001ZM5.19914 8.80017V11.2001H6.19914V8.80017H5.19914ZM5.19914 11.2001C5.19914 12.4548 6.18755 13.5001 7.44105 13.5001V12.5001C6.77048 12.5001 6.19914 11.9337 6.19914 11.2001H5.19914ZM7.90037 13.1976L10.2229 7.79775L9.30429 7.40264L6.98174 12.8025L7.90037 13.1976ZM10.2636 7.60019V1.00031H9.26361V7.60019H10.2636ZM9.76361 0.500315H3.214V1.50031H9.76361V0.500315ZM3.21984 0.500349C2.37817 0.490517 1.67938 1.12077 1.55802 1.94769L2.54742 2.0929C2.59972 1.73655 2.89171 1.49658 3.20816 1.50028L3.21984 0.500349ZM1.55814 1.94691L0.756855 7.34681L1.74602 7.49359L2.54731 2.09369L1.55814 1.94691ZM0.756748 7.34753C0.685147 7.83498 0.823644 8.33285 1.1407 8.70961L1.90583 8.06573C1.77574 7.91115 1.71547 7.70157 1.74613 7.49286L0.756748 7.34753ZM1.1407 8.70961C1.45845 9.0872 1.92501 9.30591 2.41857 9.30014L2.40687 8.3002C2.21904 8.3024 2.03521 8.21948 1.90583 8.06573L1.1407 8.70961ZM2.41272 9.30017H5.69914V8.30017H2.41272V9.30017ZM9.76367 1.50022H11.314V0.50022H9.76367V1.50022ZM11.3231 1.50014C11.7361 1.49259 12.1113 1.80798 12.1711 2.2651L13.1627 2.1353C13.0401 1.19912 12.2523 0.482989 11.3049 0.500303L11.3231 1.50014ZM12.1669 2.2002V6.40012H13.1669V2.2002H12.1669ZM12.1711 6.33522C12.1113 6.79234 11.7361 7.10773 11.3231 7.10018L11.3049 8.10002C12.2523 8.11733 13.0401 7.40119 13.1627 6.46502L12.1711 6.33522ZM11.314 7.1001H9.76367V8.1001H11.314V7.1001ZM10.2637 7.6001V1.00022H9.26367V7.6001H10.2637Z" fill="white"/>
</svg>
