<svg width="13" height="14" viewBox="0 0 13 14" fill="none" xmlns="http://www.w3.org/2000/svg">
<path d="M7.96766 5.19997H7.46766C7.46766 5.47612 7.69151 5.69997 7.96766 5.69997V5.19997ZM7.96766 2.79999H8.46766H7.96766ZM6.22573 1V0.5C6.02595 0.5 5.84535 0.618921 5.76642 0.802444L6.22573 1ZM3.90317 6.39996L3.44385 6.20241C3.41701 6.26481 3.40317 6.33203 3.40317 6.39996H3.90317ZM3.90317 12.9999H3.40317C3.40317 13.2761 3.62703 13.4999 3.90317 13.4999V12.9999ZM10.4528 12.9999L10.4586 12.4999H10.4528V12.9999ZM11.6141 11.9799L11.1195 11.9065L11.1194 11.9073L11.6141 11.9799ZM12.4154 6.57996L12.91 6.65335L12.9101 6.65263L12.4154 6.57996ZM11.2541 5.19997V5.70001L11.2599 5.69994L11.2541 5.19997ZM3.9032 13V13.5C4.17934 13.5 4.4032 13.2761 4.4032 13H3.9032ZM3.9032 6.40001H4.4032C4.4032 6.12387 4.17934 5.90001 3.9032 5.90001V6.40001ZM8.46766 5.19997V2.79999H7.46766V5.19997H8.46766ZM8.46766 2.79999C8.46766 1.54532 7.47924 0.5 6.22573 0.5V1.5C6.8963 1.5 7.46766 2.06644 7.46766 2.79999H8.46766ZM5.76642 0.802444L3.44385 6.20241L4.36248 6.59752L6.68505 1.19756L5.76642 0.802444ZM3.40317 6.39996V12.9999H4.40317V6.39996H3.40317ZM3.90317 13.4999H10.4528V12.4999H3.90317V13.4999ZM10.447 13.4999C11.2886 13.5097 11.9874 12.8795 12.1088 12.0525L11.1194 11.9073C11.0671 12.2637 10.7751 12.5037 10.4586 12.5L10.447 13.4999ZM12.1087 12.0533L12.91 6.65335L11.9208 6.50657L11.1195 11.9065L12.1087 12.0533ZM12.9101 6.65263C12.9817 6.16517 12.8432 5.66731 12.5261 5.29054L11.761 5.93441C11.8911 6.089 11.9513 6.29859 11.9207 6.5073L12.9101 6.65263ZM12.5261 5.29054C12.2084 4.91294 11.7418 4.69423 11.2482 4.70001L11.2599 5.69994C11.4478 5.69774 11.6316 5.78066 11.761 5.93441L12.5261 5.29054ZM11.2541 4.69997H7.96766V5.69997H11.2541V4.69997ZM3.9032 12.5H2.16128V13.5H3.9032V12.5ZM2.16128 12.5C1.81139 12.5 1.5 12.2022 1.5 11.8H0.5C0.5 12.7233 1.22845 13.5 2.16128 13.5V12.5ZM1.5 11.8V7.6H0.5V11.8H1.5ZM1.5 7.6C1.5 7.19782 1.81139 6.90001 2.16128 6.90001V5.90001C1.22845 5.90001 0.5 6.6767 0.5 7.6H1.5ZM2.16128 6.90001H3.9032V5.90001H2.16128V6.90001ZM3.4032 6.40001V13H4.4032V6.40001H3.4032Z" fill="white"/>
</svg>
