<svg width="17" height="18" viewBox="0 0 17 18" fill="none" xmlns="http://www.w3.org/2000/svg">
<g clip-path="url(#clip0)">
<path d="M13.8125 10.0547C13.8125 10.3465 13.5752 10.582 13.2812 10.582C12.9873 10.582 12.75 10.3465 12.75 10.0547C12.75 9.76289 12.9873 9.52734 13.2812 9.52734C13.5752 9.52734 13.8125 9.76289 13.8125 10.0547Z" fill="white"/>
<path d="M5.3125 0.527344V6.36328H0.53125C0.237292 6.36328 0 6.59883 0 6.89062V9C0 9.2918 0.237292 9.52734 0.53125 9.52734H5.3125V14.3086C5.3125 14.6004 5.54979 14.8359 5.84375 14.8359H10.625V17.4727C10.625 17.6625 10.7277 17.8383 10.8942 17.9332C11.0606 18.0281 11.266 18.0246 11.429 17.9262L16.7415 14.7621C16.9008 14.6672 17 14.4949 17 14.3086V0.527344C17 0.242578 16.7698 0.00351563 16.4758 0C16.4723 0 16.4723 0 16.4687 0H5.84375C5.54979 0 5.3125 0.235547 5.3125 0.527344ZM1.0625 8.47266V7.41797H5.84375C6.13771 7.41797 6.375 7.18242 6.375 6.89062V6.82031L8.075 7.94531L6.375 9.07031V9C6.375 8.7082 6.13771 8.47266 5.84375 8.47266H1.0625ZM15.9375 14.0098L11.6875 16.541V3.99023L15.9375 1.45898V14.0098ZM14.5492 1.05469L10.8835 3.23789C10.7242 3.33281 10.625 3.50508 10.625 3.69141V13.7812H6.375V10.3359L9.32521 8.38477C9.47396 8.28633 9.5625 8.12109 9.5625 7.94531C9.5625 7.76953 9.47396 7.6043 9.32521 7.50586L6.375 5.55469V1.05469H14.5492Z" fill="white"/>
</g>
<defs>
<clipPath id="clip0">
<rect width="17" height="18" fill="white"/>
</clipPath>
</defs>
</svg>
